{
	"asset":{
		"version":"2.0",
		"generator":"Created using the official Cinema 4D glTF Exporter 1.000x284978"
	},
	"scenes":[{
		"nodes":[0]
	}],
	"nodes":[{
		"name":"Default",
		"translation":[0.07031280547380448,
		0.0874304547905922,
		-0.11397651582956314],
		"rotation":[0.050371721386909488,
		-0.6041436195373535,
		-0.038309842348098758,
		-0.7943585515022278],
		"scale":[1.0,
		1.0,
		1.0],
		"mesh":0
	}],
	"meshes":[{
		"name":"Default",
		"primitives":[{
			"attributes":{
				"POSITION":1,
				"NORMAL":2,
				"TEXCOORD_0":3
			},
			"indices":0,
			"material":0
		}]
	}],
	"samplers":[{
		"wrapT":10497,
		"magFilter":9729,
		"minFilter":9729,
		"wrapS":10497
	}],
	"accessors":[{
		"bufferView":0,
		"type":"SCALAR",
		"componentType":5123,
		"count":312603,
		"byteOffset":0,
		"min":[0],
		"max":[54365]
	},
	{
		"bufferView":1,
		"type":"VEC3",
		"componentType":5126,
		"count":54366,
		"byteOffset":0,
		"min":[-0.2795669436454773,
		-0.3376377820968628,
		-0.9885826706886292],
		"max":[0.23559054732322694,
		0.5924409627914429,
		-0.261023610830307]
	},
	{
		"bufferView":1,
		"type":"VEC3",
		"componentType":5126,
		"count":54366,
		"byteOffset":12,
		"min":[-1.0,
		-0.9998750686645508,
		-0.8862813115119934],
		"max":[1.0,
		1.0,
		1.0]
	},
	{
		"bufferView":1,
		"type":"VEC2",
		"componentType":5126,
		"count":54366,
		"byteOffset":24,
		"min":[0.1379999816417694,
		0.036399997770786288],
		"max":[0.7833999395370483,
		1.0]
	}],
	"materials":[{
		"pbrMetallicRoughness":{
			"baseColorTexture":{
				"index":0
			},
			"baseColorFactor":[1.0,
			1.0,
			1.0,
			1.0],
			"metallicFactor":1.0,
			"roughnessFactor":1.0
		},
		"emissiveFactor":[0.0,
		0.0,
		0.0],
		"alphaMode":"BLEND",
		"doubleSided":false,
		"name":"DepthKitMaterial"
	}],
	"bufferViews":[{
		"buffer":0,
		"byteOffset":0,
		"byteLength":625206,
		"target":34963
	},
	{
		"buffer":0,
		"byteOffset":625208,
		"byteLength":1739712,
		"target":34962,
		"byteStride":32
	}],
	"buffers":[{
		"uri":"data:application/octet-stream;base64,",
		"byteLength":2364920
	}],
	"images":[{
		"uri":"data:image/jpeg;base64,"
	}],
	"textures":[{
		"sampler":0,
		"source":0
	}]
}